<?xml version="1.0" encoding="UTF-8" standalone="no"?>
<!DOCTYPE svg PUBLIC "-//W3C//DTD SVG 1.1//EN" "http://www.w3.org/Graphics/SVG/1.1/DTD/svg11.dtd">
<svg width="100%" height="100%" viewBox="0 0 122 37" version="1.1" xmlns="http://www.w3.org/2000/svg" xmlns:xlink="http://www.w3.org/1999/xlink" xml:space="preserve" xmlns:serif="http://www.serif.com/" style="fill-rule:evenodd;clip-rule:evenodd;stroke-linejoin:round;stroke-miterlimit:2;">
    <g transform="matrix(1,0,0,1,-35.1141,-29.8137)">
        <g transform="matrix(-0.0242898,-0.0289297,0.0346425,-0.0290865,47.5514,78.1564)">
            <path d="M796.5,685.8C749.2,653.5 681.5,666 648,713.3C619.3,753.8 622,811.8 654.1,846C693.6,888.1 747.3,896.6 793.5,867.8C799,864.4 804.3,860.5 809.6,856.8C812.4,854 815.2,851.2 817.9,848.4C819.1,843.3 823.5,840.5 826.3,836.5C859.8,787.7 846.4,719.9 796.5,685.8ZM225.9,195.1C209.6,195.3 195.5,201.6 182,209.8C177.8,214 173.6,218.1 169.5,222.3C168.9,223.8 168.6,225.4 167.8,226.7C149.4,254.1 151.8,291.3 173.3,314.9C196.7,340.4 232.5,346.7 261.9,330.5C291.3,314.3 305.7,281 297.3,248.6C288.8,216.5 259.5,194.6 225.9,195.1ZM909.1,452.6C869.7,412.8 807.3,412.2 768.1,451.3C729.4,489.8 729.4,553.3 768,591.9C806.6,630.4 868.9,630.4 907.6,591.9C946.9,552.8 947.5,491.4 909.1,452.6ZM800.1,331.1C835.2,296.2 835.3,239.2 800.3,203.9C765.6,168.8 708.7,168.1 673.9,202.3C637.6,238 636.9,294.2 672.2,330.1C707.5,365.9 764.6,366.4 800.1,331.1ZM424.4,108.2C392.8,140.1 392.9,191.5 424.7,223C456.7,254.7 507.6,254.4 539.5,222.3C571.4,190.2 571.2,139.7 539,107.7C507,75.9 456.2,76.1 424.4,108.2ZM170.2,476.8C145.6,452.3 105.7,452.5 81,477.2C56.2,502 56.3,541.4 81.2,566.2C105.9,590.8 145.8,590.8 170.4,566.1C194.8,541.7 194.7,501.1 170.2,476.8ZM187.7,735.1C165.9,756.9 166,791.6 187.8,813.4C209.5,835.1 244.6,835 266.2,813.4C287.6,791.9 287.6,756.2 266.1,734.8C244.5,713.3 209.3,713.4 187.7,735.1ZM434.3,839.7C416.5,857.5 416.6,885.2 434.4,903C452,920.6 480.4,920.9 498,903.5C515.6,886.2 515.6,856.1 497.9,838.9C480.2,821.8 451.9,822.1 434.3,839.7Z" style="fill:rgb(241,196,15);fill-rule:nonzero;"/>
        </g>
        <g transform="matrix(0.994819,-0.101658,0.101658,0.994819,-18.0005,26.4977)">
            <g transform="matrix(24,0,0,24,74.5421,42.8278)">
                <path d="M0.453,0.005C0.374,0.005 0.305,-0.01 0.246,-0.039C0.187,-0.068 0.142,-0.109 0.111,-0.162C0.08,-0.215 0.064,-0.277 0.064,-0.348C0.064,-0.446 0.083,-0.533 0.12,-0.609C0.157,-0.685 0.207,-0.744 0.27,-0.786C0.333,-0.827 0.404,-0.848 0.481,-0.848C0.553,-0.848 0.608,-0.83 0.645,-0.793C0.682,-0.755 0.701,-0.707 0.701,-0.646C0.701,-0.605 0.694,-0.573 0.68,-0.548C0.665,-0.523 0.645,-0.511 0.618,-0.511C0.599,-0.511 0.585,-0.515 0.574,-0.524C0.563,-0.533 0.558,-0.545 0.558,-0.562C0.558,-0.568 0.559,-0.579 0.562,-0.595C0.566,-0.615 0.568,-0.631 0.568,-0.643C0.568,-0.704 0.536,-0.734 0.471,-0.734C0.427,-0.734 0.385,-0.72 0.345,-0.691C0.305,-0.662 0.273,-0.62 0.248,-0.565C0.223,-0.509 0.211,-0.443 0.211,-0.366C0.211,-0.286 0.233,-0.224 0.278,-0.181C0.323,-0.137 0.389,-0.115 0.476,-0.115C0.519,-0.115 0.563,-0.121 0.608,-0.132C0.652,-0.142 0.701,-0.159 0.755,-0.182C0.765,-0.186 0.773,-0.188 0.78,-0.188C0.791,-0.188 0.799,-0.184 0.804,-0.176C0.809,-0.168 0.812,-0.158 0.812,-0.145C0.812,-0.104 0.79,-0.074 0.746,-0.055C0.699,-0.034 0.65,-0.019 0.599,-0.01C0.548,0 0.499,0.005 0.453,0.005Z" style="fill:rgb(44,62,80);fill-rule:nonzero;"/>
            </g>
            <g transform="matrix(24,0,0,24,91.0061,42.8278)">
                <path d="M0.327,0.008C0.238,0.008 0.167,-0.009 0.114,-0.043C0.061,-0.076 0.034,-0.128 0.034,-0.197C0.034,-0.234 0.04,-0.262 0.053,-0.281C0.066,-0.3 0.084,-0.31 0.109,-0.31C0.127,-0.31 0.142,-0.305 0.153,-0.296C0.164,-0.287 0.17,-0.275 0.17,-0.26C0.17,-0.247 0.169,-0.235 0.167,-0.225C0.167,-0.222 0.167,-0.218 0.166,-0.211C0.165,-0.204 0.164,-0.197 0.164,-0.19C0.164,-0.16 0.179,-0.138 0.21,-0.123C0.24,-0.108 0.282,-0.101 0.337,-0.101C0.394,-0.101 0.438,-0.111 0.47,-0.132C0.502,-0.152 0.518,-0.18 0.518,-0.217C0.518,-0.24 0.511,-0.259 0.496,-0.276C0.481,-0.292 0.463,-0.306 0.441,-0.317C0.419,-0.328 0.388,-0.341 0.348,-0.357C0.297,-0.377 0.255,-0.396 0.223,-0.414C0.19,-0.432 0.163,-0.456 0.14,-0.488C0.117,-0.519 0.105,-0.557 0.105,-0.603C0.105,-0.651 0.118,-0.694 0.144,-0.731C0.169,-0.768 0.206,-0.797 0.255,-0.818C0.303,-0.839 0.36,-0.849 0.425,-0.849C0.474,-0.849 0.518,-0.842 0.559,-0.828C0.6,-0.813 0.632,-0.791 0.657,-0.762C0.681,-0.733 0.693,-0.697 0.693,-0.654C0.693,-0.612 0.687,-0.58 0.674,-0.559C0.661,-0.538 0.643,-0.527 0.618,-0.527C0.601,-0.527 0.586,-0.532 0.575,-0.543C0.563,-0.554 0.557,-0.566 0.557,-0.581C0.557,-0.594 0.558,-0.605 0.56,-0.616C0.562,-0.636 0.563,-0.649 0.563,-0.654C0.563,-0.682 0.549,-0.703 0.522,-0.718C0.495,-0.733 0.461,-0.74 0.42,-0.74C0.363,-0.74 0.319,-0.729 0.289,-0.709C0.258,-0.688 0.243,-0.658 0.243,-0.62C0.243,-0.595 0.251,-0.573 0.267,-0.555C0.282,-0.537 0.302,-0.522 0.325,-0.51C0.348,-0.498 0.381,-0.484 0.423,-0.467C0.474,-0.446 0.514,-0.428 0.545,-0.411C0.576,-0.394 0.602,-0.372 0.624,-0.343C0.645,-0.314 0.656,-0.279 0.656,-0.237C0.656,-0.158 0.626,-0.098 0.567,-0.056C0.507,-0.013 0.427,0.008 0.327,0.008Z" style="fill:rgb(44,62,80);fill-rule:nonzero;"/>
            </g>
            <g transform="matrix(24,0,0,24,107.638,42.8278)">
                <path d="M0.327,0.008C0.238,0.008 0.167,-0.009 0.114,-0.043C0.061,-0.076 0.034,-0.128 0.034,-0.197C0.034,-0.234 0.04,-0.262 0.053,-0.281C0.066,-0.3 0.084,-0.31 0.109,-0.31C0.127,-0.31 0.142,-0.305 0.153,-0.296C0.164,-0.287 0.17,-0.275 0.17,-0.26C0.17,-0.247 0.169,-0.235 0.167,-0.225C0.167,-0.222 0.167,-0.218 0.166,-0.211C0.165,-0.204 0.164,-0.197 0.164,-0.19C0.164,-0.16 0.179,-0.138 0.21,-0.123C0.24,-0.108 0.282,-0.101 0.337,-0.101C0.394,-0.101 0.438,-0.111 0.47,-0.132C0.502,-0.152 0.518,-0.18 0.518,-0.217C0.518,-0.24 0.511,-0.259 0.496,-0.276C0.481,-0.292 0.463,-0.306 0.441,-0.317C0.419,-0.328 0.388,-0.341 0.348,-0.357C0.297,-0.377 0.255,-0.396 0.223,-0.414C0.19,-0.432 0.163,-0.456 0.14,-0.488C0.117,-0.519 0.105,-0.557 0.105,-0.603C0.105,-0.651 0.118,-0.694 0.144,-0.731C0.169,-0.768 0.206,-0.797 0.255,-0.818C0.303,-0.839 0.36,-0.849 0.425,-0.849C0.474,-0.849 0.518,-0.842 0.559,-0.828C0.6,-0.813 0.632,-0.791 0.657,-0.762C0.681,-0.733 0.693,-0.697 0.693,-0.654C0.693,-0.612 0.687,-0.58 0.674,-0.559C0.661,-0.538 0.643,-0.527 0.618,-0.527C0.601,-0.527 0.586,-0.532 0.575,-0.543C0.563,-0.554 0.557,-0.566 0.557,-0.581C0.557,-0.594 0.558,-0.605 0.56,-0.616C0.562,-0.636 0.563,-0.649 0.563,-0.654C0.563,-0.682 0.549,-0.703 0.522,-0.718C0.495,-0.733 0.461,-0.74 0.42,-0.74C0.363,-0.74 0.319,-0.729 0.289,-0.709C0.258,-0.688 0.243,-0.658 0.243,-0.62C0.243,-0.595 0.251,-0.573 0.267,-0.555C0.282,-0.537 0.302,-0.522 0.325,-0.51C0.348,-0.498 0.381,-0.484 0.423,-0.467C0.474,-0.446 0.514,-0.428 0.545,-0.411C0.576,-0.394 0.602,-0.372 0.624,-0.343C0.645,-0.314 0.656,-0.279 0.656,-0.237C0.656,-0.158 0.626,-0.098 0.567,-0.056C0.507,-0.013 0.427,0.008 0.327,0.008Z" style="fill:rgb(44,62,80);fill-rule:nonzero;"/>
            </g>
            <g transform="matrix(24,0,0,24,130.63,42.8278)">
                <path d="M0.558,-0.307C0.567,-0.307 0.573,-0.303 0.578,-0.294C0.583,-0.285 0.585,-0.274 0.585,-0.261C0.585,-0.229 0.575,-0.21 0.556,-0.204C0.516,-0.19 0.472,-0.182 0.424,-0.18C0.411,-0.124 0.386,-0.079 0.349,-0.046C0.312,-0.012 0.269,0.005 0.222,0.005C0.182,0.005 0.148,-0.005 0.12,-0.024C0.091,-0.043 0.07,-0.069 0.055,-0.101C0.04,-0.133 0.033,-0.168 0.033,-0.205C0.033,-0.256 0.043,-0.301 0.062,-0.341C0.081,-0.38 0.108,-0.411 0.142,-0.434C0.176,-0.456 0.214,-0.467 0.255,-0.467C0.306,-0.467 0.347,-0.45 0.378,-0.415C0.409,-0.38 0.427,-0.336 0.432,-0.285C0.463,-0.287 0.501,-0.294 0.544,-0.305C0.549,-0.306 0.554,-0.307 0.558,-0.307ZM0.23,-0.101C0.251,-0.101 0.27,-0.11 0.286,-0.127C0.301,-0.144 0.312,-0.169 0.317,-0.202C0.296,-0.216 0.281,-0.234 0.27,-0.257C0.259,-0.28 0.253,-0.304 0.253,-0.329C0.253,-0.34 0.254,-0.35 0.256,-0.361L0.251,-0.361C0.224,-0.361 0.202,-0.348 0.185,-0.323C0.167,-0.297 0.158,-0.261 0.158,-0.214C0.158,-0.177 0.165,-0.149 0.18,-0.13C0.194,-0.111 0.211,-0.101 0.23,-0.101Z" style="fill:rgb(44,62,80);fill-rule:nonzero;"/>
            </g>
            <g transform="matrix(24,0,0,24,141.454,42.8278)">
                <path d="M0.119,0.005C0.094,0.005 0.076,-0.008 0.066,-0.035C0.055,-0.062 0.05,-0.104 0.05,-0.163C0.05,-0.25 0.062,-0.332 0.087,-0.41C0.093,-0.429 0.103,-0.444 0.117,-0.453C0.13,-0.462 0.149,-0.466 0.174,-0.466C0.187,-0.466 0.197,-0.464 0.202,-0.461C0.207,-0.458 0.21,-0.451 0.21,-0.442C0.21,-0.431 0.205,-0.407 0.195,-0.37C0.188,-0.343 0.183,-0.32 0.179,-0.3C0.175,-0.28 0.172,-0.255 0.169,-0.226C0.191,-0.283 0.216,-0.33 0.243,-0.366C0.27,-0.402 0.297,-0.428 0.324,-0.443C0.35,-0.458 0.374,-0.466 0.396,-0.466C0.439,-0.466 0.461,-0.444 0.461,-0.401C0.461,-0.375 0.454,-0.328 0.439,-0.26C0.426,-0.202 0.42,-0.164 0.42,-0.145C0.42,-0.118 0.43,-0.105 0.449,-0.105C0.462,-0.105 0.478,-0.113 0.497,-0.13C0.515,-0.146 0.539,-0.172 0.57,-0.209C0.578,-0.218 0.587,-0.223 0.597,-0.223C0.606,-0.223 0.612,-0.219 0.618,-0.211C0.623,-0.203 0.625,-0.192 0.625,-0.178C0.625,-0.151 0.619,-0.131 0.606,-0.116C0.577,-0.081 0.547,-0.052 0.514,-0.029C0.481,-0.006 0.443,0.005 0.401,0.005C0.367,0.005 0.341,-0.005 0.324,-0.025C0.307,-0.044 0.298,-0.073 0.298,-0.11C0.298,-0.129 0.303,-0.162 0.312,-0.21C0.321,-0.252 0.325,-0.281 0.325,-0.297C0.325,-0.308 0.321,-0.313 0.314,-0.313C0.305,-0.313 0.293,-0.302 0.278,-0.28C0.262,-0.257 0.246,-0.228 0.23,-0.191C0.213,-0.154 0.2,-0.116 0.19,-0.075C0.183,-0.044 0.174,-0.023 0.165,-0.012C0.155,0 0.14,0.005 0.119,0.005Z" style="fill:rgb(44,62,80);fill-rule:nonzero;"/>
            </g>
            <g transform="matrix(24,0,0,24,153.358,42.8278)">
                <path d="M0.427,-0.223C0.436,-0.223 0.443,-0.219 0.448,-0.211C0.452,-0.203 0.455,-0.192 0.455,-0.178C0.455,-0.151 0.449,-0.131 0.436,-0.116C0.407,-0.081 0.376,-0.052 0.343,-0.029C0.309,-0.006 0.271,0.005 0.228,0.005C0.169,0.005 0.126,-0.022 0.098,-0.075C0.069,-0.128 0.055,-0.197 0.055,-0.282C0.055,-0.363 0.066,-0.456 0.087,-0.56C0.108,-0.664 0.138,-0.753 0.18,-0.828C0.221,-0.903 0.269,-0.94 0.326,-0.94C0.358,-0.94 0.383,-0.925 0.402,-0.896C0.42,-0.866 0.429,-0.823 0.429,-0.768C0.429,-0.689 0.407,-0.597 0.363,-0.492C0.319,-0.387 0.259,-0.284 0.184,-0.181C0.189,-0.154 0.196,-0.134 0.207,-0.123C0.218,-0.111 0.232,-0.105 0.249,-0.105C0.276,-0.105 0.3,-0.113 0.321,-0.129C0.342,-0.144 0.368,-0.171 0.4,-0.209C0.408,-0.218 0.417,-0.223 0.427,-0.223ZM0.304,-0.841C0.289,-0.841 0.271,-0.813 0.252,-0.758C0.233,-0.703 0.216,-0.634 0.201,-0.552C0.186,-0.47 0.178,-0.391 0.177,-0.316C0.224,-0.394 0.262,-0.472 0.29,-0.551C0.318,-0.629 0.332,-0.7 0.332,-0.765C0.332,-0.816 0.323,-0.841 0.304,-0.841Z" style="fill:rgb(44,62,80);fill-rule:nonzero;"/>
            </g>
            <g transform="matrix(24,0,0,24,161.182,42.8278)">
                <path d="M0.398,-0.466C0.413,-0.466 0.424,-0.464 0.43,-0.46C0.436,-0.456 0.439,-0.449 0.439,-0.44C0.439,-0.424 0.43,-0.367 0.413,-0.269C0.398,-0.175 0.389,-0.119 0.386,-0.102C0.361,0.069 0.327,0.205 0.284,0.305C0.241,0.405 0.183,0.455 0.111,0.455C0.077,0.455 0.049,0.444 0.028,0.424C0.007,0.403 -0.004,0.375 -0.004,0.341C-0.004,0.31 0.003,0.278 0.018,0.245C0.032,0.212 0.058,0.175 0.098,0.133C0.136,0.09 0.192,0.042 0.263,-0.013L0.266,-0.036C0.271,-0.061 0.276,-0.096 0.282,-0.142C0.269,-0.094 0.25,-0.058 0.226,-0.033C0.202,-0.008 0.177,0.005 0.15,0.005C0.12,0.005 0.095,-0.009 0.077,-0.037C0.057,-0.064 0.048,-0.099 0.048,-0.14C0.048,-0.19 0.051,-0.236 0.058,-0.278C0.065,-0.319 0.076,-0.363 0.091,-0.41C0.098,-0.43 0.107,-0.444 0.119,-0.453C0.131,-0.462 0.15,-0.466 0.176,-0.466C0.191,-0.466 0.201,-0.464 0.207,-0.459C0.212,-0.454 0.215,-0.447 0.215,-0.438C0.215,-0.433 0.211,-0.415 0.204,-0.384C0.197,-0.359 0.192,-0.337 0.188,-0.317C0.183,-0.29 0.178,-0.264 0.174,-0.239C0.17,-0.214 0.168,-0.193 0.168,-0.177C0.168,-0.152 0.175,-0.139 0.189,-0.139C0.199,-0.139 0.212,-0.149 0.227,-0.169C0.242,-0.189 0.258,-0.219 0.275,-0.26C0.292,-0.301 0.308,-0.351 0.324,-0.41C0.329,-0.43 0.338,-0.444 0.349,-0.453C0.36,-0.462 0.376,-0.466 0.398,-0.466ZM0.122,0.358C0.139,0.358 0.157,0.339 0.178,0.3C0.199,0.261 0.219,0.197 0.24,0.107C0.189,0.15 0.152,0.19 0.129,0.226C0.106,0.261 0.094,0.292 0.094,0.319C0.094,0.33 0.096,0.34 0.101,0.347C0.105,0.354 0.112,0.358 0.122,0.358Z" style="fill:rgb(44,62,80);fill-rule:nonzero;"/>
            </g>
        </g>
        <g transform="matrix(0.383308,-0.0413796,0.0413796,0.383308,58.8173,37.8137)">
            <g transform="matrix(24,0,0,24,146.413,85.767)">
                <path d="M0.427,-0.223C0.436,-0.223 0.443,-0.219 0.448,-0.211C0.452,-0.203 0.455,-0.192 0.455,-0.178C0.455,-0.151 0.449,-0.131 0.436,-0.116C0.407,-0.081 0.376,-0.052 0.343,-0.029C0.309,-0.006 0.271,0.005 0.228,0.005C0.169,0.005 0.126,-0.022 0.098,-0.075C0.069,-0.128 0.055,-0.197 0.055,-0.282C0.055,-0.363 0.066,-0.456 0.087,-0.56C0.108,-0.664 0.138,-0.753 0.18,-0.828C0.221,-0.903 0.269,-0.94 0.326,-0.94C0.358,-0.94 0.383,-0.925 0.402,-0.896C0.42,-0.866 0.429,-0.823 0.429,-0.768C0.429,-0.689 0.407,-0.597 0.363,-0.492C0.319,-0.387 0.259,-0.284 0.184,-0.181C0.189,-0.154 0.196,-0.134 0.207,-0.123C0.218,-0.111 0.232,-0.105 0.249,-0.105C0.276,-0.105 0.3,-0.113 0.321,-0.129C0.342,-0.144 0.368,-0.171 0.4,-0.209C0.408,-0.218 0.417,-0.223 0.427,-0.223ZM0.304,-0.841C0.289,-0.841 0.271,-0.813 0.252,-0.758C0.233,-0.703 0.216,-0.634 0.201,-0.552C0.186,-0.47 0.178,-0.391 0.177,-0.316C0.224,-0.394 0.262,-0.472 0.29,-0.551C0.318,-0.629 0.332,-0.7 0.332,-0.765C0.332,-0.816 0.323,-0.841 0.304,-0.841Z" style="fill:rgb(39,174,96);fill-rule:nonzero;"/>
            </g>
            <g transform="matrix(24,0,0,24,154.237,85.767)">
                <path d="M0.558,-0.307C0.567,-0.307 0.573,-0.303 0.578,-0.294C0.583,-0.285 0.585,-0.274 0.585,-0.261C0.585,-0.229 0.575,-0.21 0.556,-0.204C0.516,-0.19 0.472,-0.182 0.424,-0.18C0.411,-0.124 0.386,-0.079 0.349,-0.046C0.312,-0.012 0.269,0.005 0.222,0.005C0.182,0.005 0.148,-0.005 0.12,-0.024C0.091,-0.043 0.07,-0.069 0.055,-0.101C0.04,-0.133 0.033,-0.168 0.033,-0.205C0.033,-0.256 0.043,-0.301 0.062,-0.341C0.081,-0.38 0.108,-0.411 0.142,-0.434C0.176,-0.456 0.214,-0.467 0.255,-0.467C0.306,-0.467 0.347,-0.45 0.378,-0.415C0.409,-0.38 0.427,-0.336 0.432,-0.285C0.463,-0.287 0.501,-0.294 0.544,-0.305C0.549,-0.306 0.554,-0.307 0.558,-0.307ZM0.23,-0.101C0.251,-0.101 0.27,-0.11 0.286,-0.127C0.301,-0.144 0.312,-0.169 0.317,-0.202C0.296,-0.216 0.281,-0.234 0.27,-0.257C0.259,-0.28 0.253,-0.304 0.253,-0.329C0.253,-0.34 0.254,-0.35 0.256,-0.361L0.251,-0.361C0.224,-0.361 0.202,-0.348 0.185,-0.323C0.167,-0.297 0.158,-0.261 0.158,-0.214C0.158,-0.177 0.165,-0.149 0.18,-0.13C0.194,-0.111 0.211,-0.101 0.23,-0.101Z" style="fill:rgb(39,174,96);fill-rule:nonzero;"/>
            </g>
            <g transform="matrix(24,0,0,24,165.061,85.767)">
                <path d="M0.171,0.005C0.13,0.005 0.097,-0.01 0.072,-0.04C0.047,-0.07 0.035,-0.109 0.035,-0.158C0.035,-0.211 0.047,-0.262 0.072,-0.31C0.097,-0.357 0.13,-0.396 0.171,-0.425C0.212,-0.454 0.255,-0.468 0.301,-0.468C0.316,-0.468 0.326,-0.465 0.331,-0.46C0.335,-0.454 0.34,-0.444 0.343,-0.429C0.357,-0.432 0.372,-0.433 0.387,-0.433C0.42,-0.433 0.436,-0.421 0.436,-0.398C0.436,-0.384 0.431,-0.351 0.421,-0.298C0.406,-0.221 0.398,-0.168 0.398,-0.138C0.398,-0.128 0.401,-0.12 0.406,-0.114C0.411,-0.108 0.417,-0.105 0.425,-0.105C0.438,-0.105 0.453,-0.113 0.471,-0.13C0.489,-0.146 0.513,-0.172 0.544,-0.209C0.552,-0.218 0.561,-0.223 0.571,-0.223C0.58,-0.223 0.587,-0.219 0.592,-0.211C0.596,-0.203 0.599,-0.192 0.599,-0.178C0.599,-0.151 0.593,-0.131 0.58,-0.116C0.553,-0.082 0.524,-0.053 0.493,-0.03C0.462,-0.007 0.433,0.005 0.404,0.005C0.382,0.005 0.362,-0.003 0.344,-0.018C0.325,-0.033 0.311,-0.053 0.302,-0.079C0.267,-0.023 0.224,0.005 0.171,0.005ZM0.207,-0.096C0.222,-0.096 0.236,-0.105 0.249,-0.122C0.262,-0.139 0.272,-0.162 0.278,-0.191L0.315,-0.375C0.287,-0.374 0.261,-0.364 0.238,-0.344C0.214,-0.323 0.195,-0.296 0.181,-0.263C0.167,-0.23 0.16,-0.194 0.16,-0.157C0.16,-0.136 0.164,-0.121 0.173,-0.111C0.181,-0.101 0.192,-0.096 0.207,-0.096Z" style="fill:rgb(39,174,96);fill-rule:nonzero;"/>
            </g>
            <g transform="matrix(24,0,0,24,176.341,85.767)">
                <path d="M0.616,-0.223C0.625,-0.223 0.632,-0.219 0.637,-0.211C0.642,-0.203 0.644,-0.192 0.644,-0.178C0.644,-0.151 0.638,-0.131 0.625,-0.116C0.598,-0.083 0.568,-0.054 0.535,-0.031C0.502,-0.007 0.47,0.005 0.438,0.005C0.387,0.005 0.349,-0.025 0.322,-0.084C0.294,-0.049 0.27,-0.025 0.249,-0.013C0.228,-0.001 0.203,0.005 0.175,0.005C0.134,0.005 0.101,-0.01 0.075,-0.041C0.048,-0.071 0.035,-0.11 0.035,-0.159C0.035,-0.212 0.046,-0.262 0.069,-0.308C0.092,-0.353 0.123,-0.391 0.163,-0.42C0.202,-0.448 0.247,-0.466 0.296,-0.471C0.309,-0.6 0.333,-0.711 0.369,-0.803C0.404,-0.894 0.451,-0.94 0.509,-0.94C0.538,-0.94 0.562,-0.927 0.581,-0.901C0.6,-0.875 0.609,-0.836 0.609,-0.783C0.609,-0.708 0.591,-0.621 0.554,-0.521C0.517,-0.421 0.468,-0.318 0.407,-0.213C0.41,-0.174 0.416,-0.147 0.425,-0.13C0.434,-0.113 0.445,-0.105 0.459,-0.105C0.477,-0.105 0.495,-0.113 0.514,-0.129C0.533,-0.145 0.558,-0.172 0.589,-0.209C0.597,-0.218 0.606,-0.223 0.616,-0.223ZM0.498,-0.842C0.485,-0.842 0.473,-0.82 0.46,-0.775C0.447,-0.729 0.436,-0.671 0.428,-0.598C0.419,-0.525 0.412,-0.449 0.408,-0.37C0.483,-0.533 0.52,-0.663 0.52,-0.762C0.52,-0.787 0.518,-0.807 0.514,-0.821C0.509,-0.835 0.504,-0.842 0.498,-0.842ZM0.21,-0.096C0.223,-0.096 0.235,-0.101 0.248,-0.112C0.261,-0.122 0.277,-0.141 0.296,-0.169C0.289,-0.205 0.286,-0.245 0.286,-0.29C0.286,-0.306 0.287,-0.332 0.288,-0.368C0.251,-0.357 0.221,-0.332 0.197,-0.295C0.172,-0.257 0.16,-0.215 0.16,-0.169C0.16,-0.12 0.177,-0.096 0.21,-0.096Z" style="fill:rgb(39,174,96);fill-rule:nonzero;"/>
            </g>
            <g transform="matrix(24,0,0,24,188.701,85.767)">
                <path d="M0.494,-0.223C0.503,-0.223 0.509,-0.219 0.515,-0.211C0.52,-0.203 0.522,-0.192 0.522,-0.178C0.522,-0.151 0.516,-0.131 0.503,-0.116C0.478,-0.086 0.444,-0.058 0.399,-0.033C0.354,-0.008 0.305,0.005 0.254,0.005C0.184,0.005 0.13,-0.014 0.091,-0.052C0.052,-0.09 0.033,-0.142 0.033,-0.208C0.033,-0.254 0.043,-0.297 0.062,-0.337C0.081,-0.376 0.108,-0.408 0.143,-0.431C0.177,-0.454 0.216,-0.466 0.259,-0.466C0.298,-0.466 0.329,-0.455 0.352,-0.432C0.375,-0.409 0.387,-0.377 0.387,-0.338C0.387,-0.292 0.371,-0.253 0.338,-0.22C0.305,-0.187 0.249,-0.16 0.17,-0.141C0.187,-0.11 0.218,-0.095 0.265,-0.095C0.295,-0.095 0.329,-0.106 0.368,-0.127C0.406,-0.148 0.439,-0.175 0.467,-0.209C0.475,-0.218 0.484,-0.223 0.494,-0.223ZM0.242,-0.368C0.217,-0.368 0.197,-0.354 0.18,-0.325C0.163,-0.296 0.154,-0.262 0.154,-0.221L0.154,-0.219C0.193,-0.228 0.224,-0.242 0.247,-0.261C0.27,-0.28 0.281,-0.301 0.281,-0.326C0.281,-0.339 0.278,-0.349 0.271,-0.357C0.264,-0.364 0.254,-0.368 0.242,-0.368Z" style="fill:rgb(39,174,96);fill-rule:nonzero;"/>
            </g>
            <g transform="matrix(24,0,0,24,198.133,85.767)">
                <path d="M0.452,-0.329C0.467,-0.329 0.479,-0.324 0.49,-0.314C0.5,-0.303 0.505,-0.29 0.505,-0.275C0.505,-0.266 0.503,-0.257 0.499,-0.247C0.488,-0.222 0.473,-0.202 0.454,-0.185C0.435,-0.168 0.413,-0.16 0.39,-0.16C0.371,-0.16 0.356,-0.167 0.343,-0.18C0.33,-0.193 0.323,-0.211 0.323,-0.234C0.323,-0.247 0.324,-0.26 0.325,-0.275C0.326,-0.286 0.327,-0.293 0.327,-0.297C0.327,-0.302 0.326,-0.306 0.324,-0.309C0.321,-0.312 0.318,-0.313 0.315,-0.313C0.306,-0.313 0.293,-0.302 0.277,-0.28C0.261,-0.257 0.245,-0.228 0.229,-0.191C0.213,-0.154 0.2,-0.116 0.19,-0.075C0.183,-0.043 0.174,-0.022 0.165,-0.011C0.156,0 0.14,0.005 0.119,0.005C0.094,0.005 0.076,-0.008 0.066,-0.035C0.055,-0.062 0.05,-0.104 0.05,-0.163C0.05,-0.25 0.062,-0.332 0.087,-0.41C0.093,-0.429 0.103,-0.444 0.117,-0.453C0.13,-0.462 0.149,-0.466 0.174,-0.466C0.187,-0.466 0.197,-0.464 0.202,-0.461C0.207,-0.458 0.21,-0.451 0.21,-0.442C0.21,-0.431 0.205,-0.407 0.195,-0.37C0.188,-0.343 0.183,-0.32 0.179,-0.3C0.175,-0.28 0.172,-0.255 0.169,-0.226C0.191,-0.283 0.216,-0.33 0.243,-0.366C0.27,-0.402 0.297,-0.428 0.323,-0.443C0.349,-0.458 0.373,-0.466 0.394,-0.466C0.413,-0.466 0.428,-0.46 0.439,-0.45C0.449,-0.439 0.454,-0.422 0.454,-0.401C0.454,-0.388 0.45,-0.364 0.443,-0.329L0.452,-0.329Z" style="fill:rgb(39,174,96);fill-rule:nonzero;"/>
            </g>
            <g transform="matrix(24,0,0,24,209.413,85.767)">
                <path d="M0.234,0.027C0.199,0.027 0.173,0.019 0.155,0.003C0.136,-0.013 0.127,-0.031 0.127,-0.051C0.127,-0.068 0.133,-0.083 0.146,-0.096C0.159,-0.109 0.177,-0.115 0.202,-0.115C0.211,-0.115 0.221,-0.114 0.233,-0.113C0.244,-0.111 0.253,-0.11 0.259,-0.109C0.258,-0.126 0.255,-0.143 0.248,-0.158C0.241,-0.173 0.232,-0.188 0.221,-0.203C0.21,-0.217 0.2,-0.229 0.191,-0.24C0.17,-0.201 0.15,-0.168 0.13,-0.142C0.109,-0.116 0.087,-0.091 0.063,-0.068C0.051,-0.056 0.038,-0.05 0.025,-0.05C0.014,-0.05 0.006,-0.054 -0.001,-0.062C-0.008,-0.069 -0.011,-0.079 -0.011,-0.09C-0.011,-0.103 -0.006,-0.116 0.003,-0.127L0.016,-0.143C0.053,-0.188 0.08,-0.226 0.099,-0.255C0.111,-0.274 0.123,-0.297 0.136,-0.324C0.148,-0.351 0.164,-0.387 0.184,-0.433C0.197,-0.462 0.223,-0.477 0.263,-0.477C0.282,-0.477 0.295,-0.475 0.302,-0.472C0.309,-0.469 0.313,-0.463 0.313,-0.456C0.313,-0.452 0.312,-0.446 0.309,-0.437C0.306,-0.428 0.303,-0.42 0.298,-0.411C0.286,-0.387 0.28,-0.367 0.28,-0.35C0.28,-0.34 0.284,-0.329 0.291,-0.317C0.298,-0.305 0.308,-0.29 0.323,-0.272C0.344,-0.244 0.361,-0.22 0.372,-0.201C0.383,-0.181 0.388,-0.159 0.388,-0.136C0.388,-0.108 0.382,-0.082 0.369,-0.057C0.356,-0.032 0.337,-0.011 0.314,0.004C0.291,0.019 0.264,0.027 0.234,0.027Z" style="fill:rgb(39,174,96);fill-rule:nonzero;"/>
            </g>
        </g>
    </g>
</svg>
