<?xml version="1.0" encoding="UTF-8" standalone="no"?>
<!DOCTYPE svg PUBLIC "-//W3C//DTD SVG 1.1//EN" "http://www.w3.org/Graphics/SVG/1.1/DTD/svg11.dtd">
<svg width="100%" height="100%" viewBox="0 0 122 37" version="1.1" xmlns="http://www.w3.org/2000/svg" xmlns:xlink="http://www.w3.org/1999/xlink" xml:space="preserve" xmlns:serif="http://www.serif.com/" style="fill-rule:evenodd;clip-rule:evenodd;stroke-linejoin:round;stroke-miterlimit:2;">
    <g transform="matrix(1,0,0,1,-35.1141,-29.8137)">
        <g transform="matrix(-0.0242898,-0.0289297,0.0346425,-0.0290865,47.5514,78.1564)">
            <path d="M796.5,685.8C749.2,653.5 681.5,666 648,713.3C619.3,753.8 622,811.8 654.1,846C693.6,888.1 747.3,896.6 793.5,867.8C799,864.4 804.3,860.5 809.6,856.8C812.4,854 815.2,851.2 817.9,848.4C819.1,843.3 823.5,840.5 826.3,836.5C859.8,787.7 846.4,719.9 796.5,685.8ZM225.9,195.1C209.6,195.3 195.5,201.6 182,209.8C177.8,214 173.6,218.1 169.5,222.3C168.9,223.8 168.6,225.4 167.8,226.7C149.4,254.1 151.8,291.3 173.3,314.9C196.7,340.4 232.5,346.7 261.9,330.5C291.3,314.3 305.7,281 297.3,248.6C288.8,216.5 259.5,194.6 225.9,195.1ZM909.1,452.6C869.7,412.8 807.3,412.2 768.1,451.3C729.4,489.8 729.4,553.3 768,591.9C806.6,630.4 868.9,630.4 907.6,591.9C946.9,552.8 947.5,491.4 909.1,452.6ZM800.1,331.1C835.2,296.2 835.3,239.2 800.3,203.9C765.6,168.8 708.7,168.1 673.9,202.3C637.6,238 636.9,294.2 672.2,330.1C707.5,365.9 764.6,366.4 800.1,331.1ZM424.4,108.2C392.8,140.1 392.9,191.5 424.7,223C456.7,254.7 507.6,254.4 539.5,222.3C571.4,190.2 571.2,139.7 539,107.7C507,75.9 456.2,76.1 424.4,108.2ZM170.2,476.8C145.6,452.3 105.7,452.5 81,477.2C56.2,502 56.3,541.4 81.2,566.2C105.9,590.8 145.8,590.8 170.4,566.1C194.8,541.7 194.7,501.1 170.2,476.8ZM187.7,735.1C165.9,756.9 166,791.6 187.8,813.4C209.5,835.1 244.6,835 266.2,813.4C287.6,791.9 287.6,756.2 266.1,734.8C244.5,713.3 209.3,713.4 187.7,735.1ZM434.3,839.7C416.5,857.5 416.6,885.2 434.4,903C452,920.6 480.4,920.9 498,903.5C515.6,886.2 515.6,856.1 497.9,838.9C480.2,821.8 451.9,822.1 434.3,839.7Z" style="fill:rgb(241,196,15);fill-rule:nonzero;"/>
        </g>
        <g transform="matrix(0.994819,-0.101658,0.101658,0.994819,-18.0005,26.4977)">
            <path d="M170.734,31.644C171.102,31.644 171.358,31.692 171.502,31.788C171.646,31.884 171.718,32.044 171.718,32.268C171.718,32.652 171.51,34.02 171.094,36.372C170.726,38.628 170.51,39.964 170.446,40.38C169.854,44.492 169.038,47.748 167.998,50.148C166.958,52.548 165.574,53.748 163.846,53.748C163.03,53.748 162.366,53.496 161.854,52.992C161.342,52.488 161.086,51.828 161.086,51.012C161.086,50.26 161.258,49.492 161.602,48.708C161.946,47.924 162.586,47.024 163.522,46.008C164.458,44.992 165.782,43.828 167.494,42.516L167.566,41.964C167.678,41.372 167.806,40.524 167.95,39.42C167.63,40.572 167.182,41.448 166.606,42.048C166.03,42.648 165.422,42.948 164.782,42.948C164.062,42.948 163.474,42.616 163.018,41.952C162.562,41.288 162.334,40.46 162.334,39.468C162.334,38.268 162.414,37.168 162.574,36.168C162.734,35.168 162.998,34.108 163.366,32.988C163.526,32.508 163.75,32.164 164.038,31.956C164.326,31.748 164.782,31.644 165.406,31.644C165.758,31.644 166.002,31.7 166.138,31.812C166.274,31.924 166.342,32.092 166.342,32.316C166.342,32.444 166.254,32.876 166.078,33.612C165.918,34.204 165.79,34.74 165.694,35.22C165.566,35.876 165.454,36.504 165.358,37.104C165.262,37.704 165.214,38.196 165.214,38.58C165.214,39.188 165.382,39.492 165.718,39.492C165.958,39.492 166.258,39.252 166.618,38.772C166.978,38.292 167.362,37.564 167.77,36.588C168.178,35.612 168.574,34.412 168.958,32.988C169.086,32.508 169.282,32.164 169.546,31.956C169.81,31.748 170.206,31.644 170.734,31.644ZM164.11,51.42C164.51,51.42 164.958,50.956 165.454,50.028C165.95,49.1 166.446,47.556 166.942,45.396C165.71,46.436 164.818,47.384 164.266,48.24C163.714,49.096 163.438,49.844 163.438,50.484C163.438,50.756 163.49,50.98 163.594,51.156C163.698,51.332 163.87,51.42 164.11,51.42Z" style="fill:rgb(44,62,80);"/>
            <text x="74.542px" y="42.828px" style="font-family:'Pacifico-Regular', 'Pacifico';font-size:24px;fill:rgb(44,62,80);">CSS onl</text>
        </g>
        <g transform="matrix(0.383308,-0.0413796,0.0413796,0.383308,58.8173,37.8137)">
            <path d="M208.981,77.871C209.333,77.871 209.633,77.995 209.881,78.243C210.129,78.491 210.253,78.799 210.253,79.167C210.253,79.375 210.205,79.599 210.109,79.839C209.853,80.431 209.493,80.927 209.029,81.327C208.565,81.727 208.053,81.927 207.493,81.927C207.045,81.927 206.665,81.767 206.353,81.447C206.041,81.127 205.885,80.695 205.885,80.151C205.885,79.847 205.901,79.519 205.933,79.167C205.965,78.911 205.981,78.735 205.981,78.639C205.981,78.511 205.953,78.415 205.897,78.351C205.841,78.287 205.773,78.255 205.693,78.255C205.469,78.255 205.165,78.523 204.781,79.059C204.397,79.595 204.013,80.303 203.629,81.183C203.245,82.063 202.933,82.991 202.693,83.967C202.517,84.735 202.317,85.247 202.093,85.503C201.869,85.759 201.501,85.887 200.989,85.887C200.381,85.887 199.953,85.567 199.705,84.927C199.457,84.287 199.333,83.263 199.333,81.855C199.333,79.775 199.629,77.799 200.221,75.927C200.365,75.463 200.601,75.123 200.929,74.907C201.257,74.691 201.717,74.583 202.309,74.583C202.629,74.583 202.853,74.623 202.981,74.703C203.109,74.783 203.173,74.935 203.173,75.159C203.173,75.415 203.053,75.991 202.813,76.887C202.653,77.527 202.525,78.087 202.429,78.567C202.333,79.047 202.253,79.639 202.189,80.343C202.717,78.967 203.309,77.847 203.965,76.983C204.621,76.119 205.261,75.503 205.885,75.135C206.509,74.767 207.077,74.583 207.589,74.583C208.053,74.583 208.409,74.715 208.657,74.979C208.905,75.243 209.029,75.631 209.029,76.143C209.029,76.447 208.941,77.023 208.765,77.871L208.981,77.871Z" style="fill:rgb(39,174,96);"/>
            <path d="M215.029,86.415C214.197,86.415 213.561,86.223 213.121,85.839C212.681,85.455 212.461,85.023 212.461,84.543C212.461,84.127 212.613,83.767 212.917,83.463C213.221,83.159 213.669,83.007 214.261,83.007C214.469,83.007 214.713,83.027 214.993,83.067C215.273,83.107 215.485,83.135 215.629,83.151C215.613,82.735 215.521,82.343 215.353,81.975C215.185,81.607 214.973,81.251 214.717,80.907C214.461,80.563 214.221,80.263 213.997,80.007C213.501,80.951 213.009,81.735 212.521,82.359C212.033,82.983 211.501,83.575 210.925,84.135C210.637,84.423 210.333,84.567 210.013,84.567C209.757,84.567 209.549,84.475 209.389,84.291C209.229,84.107 209.149,83.879 209.149,83.607C209.149,83.287 209.261,82.991 209.485,82.719L209.797,82.335C210.677,81.247 211.341,80.351 211.789,79.647C212.077,79.183 212.369,78.631 212.665,77.991C212.961,77.351 213.349,76.479 213.829,75.375C214.133,74.671 214.765,74.319 215.725,74.319C216.173,74.319 216.485,74.359 216.661,74.439C216.837,74.519 216.925,74.647 216.925,74.823C216.925,74.919 216.893,75.071 216.829,75.279C216.765,75.487 216.677,75.695 216.565,75.903C216.277,76.479 216.133,76.967 216.133,77.367C216.133,77.607 216.217,77.871 216.385,78.159C216.553,78.447 216.813,78.807 217.165,79.239C217.677,79.911 218.065,80.483 218.329,80.955C218.593,81.427 218.725,81.943 218.725,82.503C218.725,83.175 218.569,83.811 218.257,84.411C217.945,85.011 217.509,85.495 216.949,85.863C216.389,86.231 215.749,86.415 215.029,86.415Z" style="fill:rgb(39,174,96);"/>
            <text x="146.413px" y="85.767px" style="font-family:'Pacifico-Regular', 'Pacifico';font-size:24px;fill:rgb(39,174,96);">loade</text>
        </g>
    </g>
</svg>
